<svg width="33" height="31" viewBox="0 0 33 31" fill="none" xmlns="http://www.w3.org/2000/svg">
<g clip-path="url(#clip0_164_675)">
<path d="M6.05427 1.53381C5.23381 1.53381 4.55869 2.20889 4.55869 3.02935V4.02706C4.55869 4.84752 5.23381 5.52657 6.05427 5.52657H17.028C17.8484 5.52657 18.5265 4.84752 18.5265 4.02706V3.02935C18.5265 2.20889 17.8484 1.53381 17.028 1.53381H6.05427ZM6.05427 6.52227V7.52878C3.84775 7.81197 2.0625 9.72736 2.0625 12.0106V29.9439C2.0625 30.7714 2.73398 31.4648 3.56099 31.4648H15.7165C14.6935 30.64 14.0339 29.3805 14.0339 27.9738C14.0339 27.0524 14.3166 26.1931 14.7987 25.4776H3.0602V13.5052H20.022V23.4812H21.0197V12.0106C21.0197 9.72613 19.2362 7.81041 17.028 7.52878V6.52227H6.05427ZM10.5429 15.5016C10.4113 15.5021 10.2852 15.5546 10.1922 15.6477C10.0991 15.7408 10.0466 15.8669 10.046 15.9985V17.9948H8.04966C7.98383 17.9946 7.91859 18.0074 7.85772 18.0325C7.79684 18.0575 7.74154 18.0944 7.69498 18.141C7.64843 18.1875 7.61155 18.2428 7.58647 18.3037C7.56139 18.3646 7.54861 18.4298 7.54886 18.4956V20.4911C7.54939 20.6234 7.60245 20.75 7.69636 20.8432C7.79028 20.9364 7.91736 20.9885 8.04966 20.988H10.046V22.9843C10.0466 23.1159 10.0991 23.242 10.1922 23.3351C10.2852 23.4281 10.4113 23.4807 10.5429 23.4812H12.5393C12.6716 23.4817 12.7987 23.4296 12.8926 23.3364C12.9865 23.2433 13.0396 23.1166 13.0401 22.9843V20.988H15.0316C15.1639 20.9885 15.291 20.9364 15.3849 20.8432C15.4788 20.75 15.5319 20.6234 15.5324 20.4911V18.4956C15.5327 18.4298 15.5199 18.3646 15.4948 18.3037C15.4697 18.2428 15.4328 18.1875 15.3863 18.141C15.3397 18.0944 15.2844 18.0575 15.2235 18.0325C15.1627 18.0074 15.0974 17.9946 15.0316 17.9948H13.0401V15.9985C13.0396 15.8662 12.9865 15.7395 12.8926 15.6463C12.7987 15.5532 12.6716 15.5011 12.5393 15.5016H10.5429ZM18.5265 24.4789C16.6006 24.4789 15.0316 26.0479 15.0316 27.9738C15.0316 29.8997 16.6006 31.4648 18.5265 31.4648H22.0174V24.4789H18.5265ZM23.0151 24.4808V31.4667H26.5061C28.432 31.4667 30.001 29.9016 30.001 27.9756C30.001 26.0497 28.432 24.4808 26.5061 24.4808H23.0151Z" fill="white"/>
</g>
<defs>
<clipPath id="clip0_164_675">
<rect width="33" height="31" fill="white"/>
</clipPath>
</defs>
</svg>
