<svg width="45" height="42" viewBox="0 0 45 42" fill="none" xmlns="http://www.w3.org/2000/svg">
<path d="M24.9402 6.33928L16.3237 14.3814C15.5915 15.0647 15.5915 16.1726 16.3237 16.8559L20.3005 20.5677C21.0327 21.251 22.2197 21.251 22.9518 20.5677L31.5684 12.5255C32.3005 11.8422 32.3005 10.7343 31.5684 10.051L27.5915 6.33928C26.8594 5.65596 25.6724 5.65596 24.9402 6.33928Z" fill="white"/>
<path d="M31.7141 8.55583L34.3658 6.08124L35.0287 6.70004C35.2046 6.86413 35.443 6.95632 35.6917 6.95632C35.9403 6.95632 36.1787 6.86413 36.3546 6.70004L37.0175 6.08124C37.1933 5.91714 37.2921 5.69459 37.2921 5.46253C37.2921 5.23046 37.1933 5.00791 37.0175 4.84381L33.0399 1.13128C32.8641 0.967185 32.6257 0.875 32.377 0.875C32.1284 0.875 31.8899 0.967185 31.7141 1.13128L31.0512 1.74999C30.8754 1.91408 30.7766 2.13664 30.7766 2.3687C30.7766 2.60076 30.8754 2.82332 31.0512 2.98741L31.7141 3.60613L29.0625 6.08124L31.7141 8.55583Z" fill="white"/>
<path d="M37.5 35.875H36.9171C38.5321 34.2044 39.7436 32.2293 40.4694 30.0836C41.1953 27.9379 41.4185 25.6716 41.124 23.4383C40.8296 21.205 40.0243 19.0568 38.7627 17.1394C37.5011 15.2219 35.8127 13.5799 33.8119 12.3246C33.6377 12.8661 33.3241 13.3596 32.8986 13.762L30.1142 16.3608C31.5083 17.1334 32.7068 18.1783 33.6276 19.4238C34.5483 20.6693 35.1696 22.086 35.4487 23.5766C35.7278 25.0673 35.6581 26.5966 35.2445 28.0598C34.8309 29.5229 34.083 30.8853 33.0523 32.0533C32.0216 33.2214 30.7324 34.1676 29.2731 34.827C27.8138 35.4864 26.219 35.8434 24.598 35.8735C22.977 35.9036 21.3682 35.6061 19.8819 35.0014C18.3957 34.3968 17.0672 33.4992 15.9875 32.3703C15.9704 32.3703 15.9547 32.375 15.9375 32.375H9.28125C9.9525 33.6426 10.8039 34.8199 11.8125 35.875H11.25C10.2558 35.876 9.30256 36.2451 8.59953 36.9013C7.8965 37.5574 7.50107 38.4471 7.5 39.375V40.25C7.5 40.4821 7.59877 40.7047 7.77459 40.8688C7.9504 41.0328 8.18886 41.125 8.4375 41.125H40.3125C40.5611 41.125 40.7996 41.0328 40.9754 40.8688C41.1512 40.7047 41.25 40.4821 41.25 40.25V39.375C41.2489 38.4471 40.8535 37.5574 40.1505 36.9013C39.4474 36.2451 38.4942 35.876 37.5 35.875Z" fill="white"/>
<path d="M18.75 28V27.125C18.75 26.8929 18.6512 26.6704 18.4754 26.5063C18.2996 26.3422 18.0611 26.25 17.8125 26.25H4.6875C4.43886 26.25 4.2004 26.3422 4.02459 26.5063C3.84877 26.6704 3.75 26.8929 3.75 27.125V28C3.75082 28.696 4.0474 29.3632 4.57467 29.8553C5.10194 30.3474 5.81683 30.6242 6.5625 30.625H15.9375C16.6832 30.6242 17.3981 30.3474 17.9253 29.8553C18.4526 29.3632 18.7492 28.696 18.75 28Z" fill="white"/>
<path d="M16.9884 22.4239C17.1642 22.588 17.4027 22.6802 17.6513 22.6802C17.9 22.6802 18.1384 22.588 18.3142 22.4239L18.9774 21.805L14.9997 18.0934L14.3371 18.7118C14.1613 18.8759 14.0625 19.0985 14.0625 19.3305C14.0625 19.5626 14.1613 19.7852 14.3371 19.9493L16.9884 22.4239Z" fill="white"/>
</svg>
