<svg width="37" height="39" viewBox="0 0 37 39" fill="none" xmlns="http://www.w3.org/2000/svg">
<path fill-rule="evenodd" clip-rule="evenodd" d="M12.1629 6.52214H3.5959V10.1368H5.0389C5.18031 10.1368 5.31593 10.193 5.41593 10.293C5.51592 10.393 5.5721 10.5286 5.5721 10.67C5.5721 10.8114 5.51592 10.947 5.41593 11.047C5.31593 11.147 5.18031 11.2032 5.0389 11.2032H3.5959V13.8785H6.93062C7.07204 13.8785 7.20766 13.9347 7.30766 14.0347C7.40765 14.1347 7.46383 14.2703 7.46383 14.4117C7.46383 14.5531 7.40765 14.6888 7.30766 14.7888C7.20766 14.8887 7.07204 14.9449 6.93062 14.9449H3.5959V17.6203H5.0389C5.18031 17.6203 5.31593 17.6765 5.41593 17.7765C5.51592 17.8765 5.5721 18.0121 5.5721 18.1535C5.5721 18.2949 5.51592 18.4305 5.41593 18.5305C5.31593 18.6305 5.18031 18.6867 5.0389 18.6867H3.5959V22.7634H8.31779C9.10291 25.3567 10.8637 27.5442 13.2294 28.8652V32.9642C13.2294 34.3831 12.6658 35.7439 11.6624 36.7472C10.6591 37.7506 9.29833 38.3142 7.87942 38.3142C6.46051 38.3142 5.09972 37.7506 4.09639 36.7472C3.09307 35.7439 2.52941 34.3831 2.52941 32.9642V6.50729C2.01454 6.44503 1.54023 6.19656 1.1959 5.80874C0.851574 5.42091 0.661017 4.92052 0.660156 4.4019V2.80579C0.661023 2.24373 0.884683 1.70494 1.28212 1.30751C1.67955 0.910074 2.21834 0.686413 2.7804 0.685547H12.9784C13.5405 0.686413 14.0793 0.910074 14.4767 1.30751C14.8742 1.70494 15.0978 2.24373 15.0987 2.80579V4.4019C15.0978 4.92053 14.9073 5.42093 14.5629 5.80877C14.2186 6.19661 13.7443 6.44509 13.2294 6.50736V10.6383C12.8605 10.8444 12.5043 11.0727 12.163 11.322L12.1629 6.52214ZM26.3746 29.2332L27.7889 27.8189C28.0146 27.5945 28.32 27.4685 28.6382 27.4685C28.9565 27.4685 29.2618 27.5945 29.4876 27.8189L35.9866 34.3179C36.211 34.5436 36.3369 34.8489 36.3369 35.1672C36.3369 35.4854 36.211 35.7908 35.9866 36.0165L34.5722 37.4309C34.3465 37.6553 34.0411 37.7812 33.7229 37.7812C33.4046 37.7812 33.0993 37.6553 32.8735 37.4309L26.3746 30.9319C26.1503 30.7062 26.0243 30.4008 26.0243 30.0826C26.0243 29.7643 26.1503 29.459 26.3746 29.2332V29.2332ZM18.3074 13.1473C17.0011 13.1473 15.724 13.5347 14.6378 14.2604C13.5516 14.9862 12.705 16.0178 12.2051 17.2247C11.7052 18.4316 11.5744 19.7597 11.8293 21.041C12.0841 22.3222 12.7132 23.4992 13.6369 24.4229C14.5607 25.3466 15.7376 25.9757 17.0189 26.2305C18.3001 26.4854 19.6282 26.3546 20.8351 25.8546C22.0421 25.3547 23.0736 24.5081 23.7994 23.4219C24.5252 22.3357 24.9125 21.0587 24.9125 19.7523C24.9126 18.8849 24.7419 18.0259 24.41 17.2245C24.0781 16.4231 23.5916 15.6949 22.9782 15.0815C22.3648 14.4682 21.6366 13.9817 20.8352 13.6498C20.0338 13.3179 19.1748 13.1471 18.3074 13.1473ZM19.8385 22.4566C19.4316 22.8612 18.8812 23.0882 18.3074 23.0882C17.7337 23.0882 17.1832 22.8612 16.7764 22.4566C15.9344 21.6146 16.1537 19.9277 16.7764 18.9123L18.3074 16.4165L19.8385 18.9123C20.4611 19.9269 20.6805 21.6142 19.8384 22.4562L19.8385 22.4566ZM27.673 19.7525C27.6729 17.6422 26.96 15.5938 25.65 13.9393C24.3399 12.2849 22.5095 11.1214 20.4554 10.6375C18.4013 10.1536 16.244 10.3776 14.3332 11.2733C12.4224 12.169 10.8701 13.6838 9.92798 15.5721C8.98586 17.4605 8.70915 19.6117 9.1427 21.677C9.57624 23.7423 10.6946 25.6006 12.3166 26.9507C13.9385 28.3008 15.9689 29.0635 18.0786 29.1152C20.1882 29.1669 22.2535 28.5045 23.9397 27.2355L25.4174 28.7132C25.4798 28.6309 25.5477 28.553 25.6207 28.48L27.035 27.0657C27.108 26.9927 27.1859 26.9248 27.2682 26.8624L25.7905 25.3847C27.0152 23.7625 27.6762 21.7845 27.6729 19.7519L27.673 19.7525ZM18.3074 27.4234C16.7901 27.4234 15.3069 26.9735 14.0454 26.1305C12.7838 25.2876 11.8005 24.0894 11.2199 22.6877C10.6392 21.2859 10.4873 19.7434 10.7833 18.2553C11.0793 16.7671 11.81 15.4002 12.8829 14.3273C13.9557 13.2545 15.3227 12.5238 16.8108 12.2278C18.2989 11.9318 19.8414 12.0837 21.2432 12.6644C22.645 13.245 23.8431 14.2283 24.686 15.4898C25.529 16.7514 25.9789 18.2346 25.9789 19.7519C25.9791 20.7594 25.7807 21.757 25.3952 22.6878C25.0097 23.6186 24.4447 24.4644 23.7323 25.1768C23.0199 25.8892 22.1741 26.4542 21.2433 26.8397C20.3125 27.2252 19.3149 27.4235 18.3074 27.4234Z" fill="white"/>
</svg>
