<svg width="35" height="35" viewBox="0 0 35 35" fill="none" xmlns="http://www.w3.org/2000/svg">
<g clip-path="url(#clip0_164_366)">
<path d="M26.945 2.06974C24.2177 -0.657565 19.7836 -0.666595 17.0563 2.06974L10.2109 8.9151L20.1087 18.8129L26.945 11.9585C29.6723 9.22215 29.6723 4.79705 26.945 2.06974ZM19.9281 6.11555L16.8125 9.18602L16.8034 9.19505C16.4422 9.54725 15.8733 9.53822 15.5301 9.17699C15.1779 8.81576 15.1869 8.24682 15.5481 7.90365L18.6728 4.83317L18.6818 4.82414C19.0431 4.47194 19.612 4.48097 19.9552 4.8422C20.2984 5.1944 20.2893 5.77237 19.9281 6.11555Z" fill="white"/>
<path d="M8.92922 10.1884L2.03871 17.0879C-0.679569 19.8242 -0.679569 24.2403 2.03871 26.9766C4.7931 29.6949 9.22723 29.6949 11.9816 26.9766L18.836 20.0952L8.92922 10.1884Z" fill="white"/>
<path d="M33.5567 23.7888L23.8125 33.5421C26.585 35.6643 30.4953 35.4115 32.9607 32.9461C35.4352 30.4807 35.688 26.5613 33.5567 23.7888Z" fill="white"/>
<path d="M28.0475 21.0796C24.2094 21.0796 21.0938 24.1862 21.0938 28.0333C21.0938 29.5686 21.5995 31.0586 22.5296 32.2688L32.2739 22.5245C31.0638 21.5853 29.5827 21.0796 28.0475 21.0796Z" fill="white"/>
</g>
<defs>
<clipPath id="clip0_164_366">
<rect width="35" height="35" fill="white"/>
</clipPath>
</defs>
</svg>
