<svg width="37" height="37" viewBox="0 0 37 37" fill="none" xmlns="http://www.w3.org/2000/svg">
<path d="M4.6251 16.6807L16.6817 4.62412L15.1185 3.12506C13.4837 1.78109 11.4072 1.09366 9.29329 1.19662C7.17943 1.29958 5.17955 2.18557 3.68305 3.68207C2.18655 5.17857 1.30056 7.17845 1.1976 9.29232C1.09463 11.4062 1.78206 13.4827 3.12604 15.1176L4.6251 16.6807Z" fill="white"/>
<path d="M32.3769 20.3193L20.3203 32.3759L21.8834 33.939C23.4822 35.5378 25.6507 36.436 27.9117 36.436C30.1728 36.436 32.3412 35.5378 33.94 33.939C35.5388 32.3402 36.437 30.1718 36.437 27.9107C36.437 25.6497 35.5388 23.4813 33.94 21.8825L32.3769 20.3193Z" fill="white"/>
<path d="M33.9391 15.1175C35.3638 13.4876 36.1148 11.3765 36.0393 9.21301C35.9639 7.0495 35.0677 4.99582 33.5329 3.46914C31.998 1.94246 29.9396 1.05726 27.7757 0.993342C25.6119 0.929426 23.5048 1.69159 21.8825 3.12501L18.5 6.43064L30.5694 18.5L33.9391 15.1175Z" fill="white"/>
<path d="M3.1259 21.8825C1.5271 23.4813 0.628906 25.6497 0.628906 27.9108C0.628906 30.1718 1.5271 32.3403 3.1259 33.9391C4.7247 35.5379 6.89314 36.4361 9.15418 36.4361C11.4152 36.4361 13.5837 35.5379 15.1825 33.9391L18.5009 30.5694L6.43153 18.5L3.1259 21.8825Z" fill="white"/>
<path d="M8.25 16.6806L20.3194 28.75L28.75 20.3194L16.6806 8.25L8.25 16.6806ZM14.6562 19.7812C14.4028 19.7812 14.1551 19.7061 13.9444 19.5653C13.7337 19.4245 13.5695 19.2244 13.4725 18.9903C13.3756 18.7562 13.3502 18.4986 13.3996 18.25C13.4491 18.0015 13.5711 17.7732 13.7503 17.594C13.9295 17.4148 14.1578 17.2928 14.4063 17.2434C14.6548 17.1939 14.9124 17.2193 15.1466 17.3163C15.3807 17.4133 15.5808 17.5775 15.7216 17.7882C15.8624 17.9989 15.9375 18.2466 15.9375 18.5C15.9375 18.8398 15.8025 19.1657 15.5622 19.406C15.3219 19.6463 14.9961 19.7812 14.6562 19.7812ZM22.3438 17.2188C22.5972 17.2188 22.8449 17.2939 23.0556 17.4347C23.2663 17.5755 23.4305 17.7756 23.5275 18.0097C23.6244 18.2438 23.6498 18.5014 23.6004 18.75C23.5509 18.9985 23.4289 19.2268 23.2497 19.406C23.0705 19.5852 22.8422 19.7072 22.5937 19.7566C22.3452 19.8061 22.0876 19.7807 21.8534 19.6837C21.6193 19.5867 21.4192 19.4225 21.2784 19.2118C21.1376 19.0011 21.0625 18.7534 21.0625 18.5C21.0625 18.1602 21.1975 17.8343 21.4378 17.594C21.678 17.3537 22.0039 17.2188 22.3438 17.2188ZM18.5 13.375C18.7534 13.375 19.0011 13.4501 19.2118 13.5909C19.4225 13.7317 19.5867 13.9318 19.6837 14.1659C19.7807 14.4001 19.8061 14.6577 19.7566 14.9062C19.7072 15.1547 19.5852 15.383 19.406 15.5622C19.2268 15.7414 18.9985 15.8634 18.75 15.9129C18.5014 15.9623 18.2438 15.9369 18.0097 15.84C17.7756 15.743 17.5755 15.5788 17.4347 15.3681C17.2939 15.1574 17.2188 14.9097 17.2188 14.6562C17.2188 14.3164 17.3537 13.9906 17.594 13.7503C17.8343 13.51 18.1602 13.375 18.5 13.375ZM18.5 21.0625C18.7534 21.0625 19.0011 21.1376 19.2118 21.2784C19.4225 21.4192 19.5867 21.6193 19.6837 21.8534C19.7807 22.0876 19.8061 22.3452 19.7566 22.5937C19.7072 22.8422 19.5852 23.0705 19.406 23.2497C19.2268 23.4289 18.9985 23.5509 18.75 23.6004C18.5014 23.6498 18.2438 23.6244 18.0097 23.5275C17.7756 23.4305 17.5755 23.2663 17.4347 23.0556C17.2939 22.8449 17.2188 22.5972 17.2188 22.3438C17.2188 22.0039 17.3537 21.678 17.594 21.4378C17.8343 21.1975 18.1602 21.0625 18.5 21.0625Z" fill="white"/>
</svg>
