<svg width="47" height="43" viewBox="0 0 47 43" fill="none" xmlns="http://www.w3.org/2000/svg">
<path d="M23.5 9.25C26.2442 9.25 28.4688 7.19331 28.4688 4.65625C28.4688 2.11919 26.2442 0.0625 23.5 0.0625C20.7558 0.0625 18.5312 2.11919 18.5312 4.65625C18.5312 7.19331 20.7558 9.25 23.5 9.25Z" fill="white"/>
<path d="M5.28125 26.0938C8.02541 26.0938 10.25 24.0371 10.25 21.5C10.25 18.9629 8.02541 16.9062 5.28125 16.9062C2.53709 16.9062 0.3125 18.9629 0.3125 21.5C0.3125 24.0371 2.53709 26.0938 5.28125 26.0938Z" fill="white"/>
<path d="M23.5 42.9375C26.2442 42.9375 28.4688 40.8808 28.4688 38.3438C28.4688 35.8067 26.2442 33.75 23.5 33.75C20.7558 33.75 18.5312 35.8067 18.5312 38.3438C18.5312 40.8808 20.7558 42.9375 23.5 42.9375Z" fill="white"/>
<path d="M41.7188 26.0938C44.4629 26.0938 46.6875 24.0371 46.6875 21.5C46.6875 18.9629 44.4629 16.9062 41.7188 16.9062C38.9746 16.9062 36.75 18.9629 36.75 21.5C36.75 24.0371 38.9746 26.0938 41.7188 26.0938Z" fill="white"/>
<path d="M15.2188 36.8125C10.6527 36.8125 6.9375 33.3777 6.9375 29.1562C6.9375 28.3106 6.19591 27.625 5.28125 27.625C4.36659 27.625 3.625 28.3106 3.625 29.1562C3.625 35.0667 8.82585 39.875 15.2188 39.875C16.1334 39.875 16.875 39.1894 16.875 38.3438C16.875 37.4981 16.1334 36.8125 15.2188 36.8125Z" fill="white"/>
<path d="M5.28125 15.375C6.19591 15.375 6.9375 14.6894 6.9375 13.8438C6.9375 9.62234 10.6527 6.1875 15.2188 6.1875C16.1334 6.1875 16.875 5.50188 16.875 4.65625C16.875 3.81062 16.1334 3.125 15.2188 3.125C8.82585 3.125 3.625 7.93333 3.625 13.8438C3.625 14.6894 4.36659 15.375 5.28125 15.375Z" fill="white"/>
<path d="M41.7188 27.625C40.8041 27.625 40.0625 28.3106 40.0625 29.1562C40.0625 33.3777 36.3473 36.8125 31.7812 36.8125C30.8666 36.8125 30.125 37.4981 30.125 38.3438C30.125 39.1894 30.8666 39.875 31.7812 39.875C38.1741 39.875 43.375 35.0667 43.375 29.1562C43.375 28.3106 42.6334 27.625 41.7188 27.625Z" fill="white"/>
<path d="M31.7812 6.1875C36.3473 6.1875 40.0625 9.62234 40.0625 13.8438C40.0625 14.6894 40.8041 15.375 41.7188 15.375C42.6334 15.375 43.375 14.6894 43.375 13.8438C43.375 7.93333 38.1741 3.125 31.7812 3.125C30.8666 3.125 30.125 3.81062 30.125 4.65625C30.125 5.50188 30.8666 6.1875 31.7812 6.1875Z" fill="white"/>
<path d="M16.875 15.375H13.5625C12.6478 15.375 11.9062 16.0606 11.9062 16.9062V29.1562C11.9062 30.0019 12.6478 30.6875 13.5625 30.6875H33.4375C34.3522 30.6875 35.0938 30.0019 35.0938 29.1562V16.9062C35.0938 16.0606 34.3522 15.375 33.4375 15.375H30.125V12.3125C30.125 11.4669 29.3834 10.7812 28.4688 10.7812H18.5312C17.6166 10.7812 16.875 11.4669 16.875 12.3125V15.375ZM20.1875 13.8438H26.8125V15.375H20.1875V13.8438ZM19.3594 22.2656H22.6719V19.2031C22.6719 18.7799 23.0423 18.4375 23.5 18.4375C23.9577 18.4375 24.3281 18.7799 24.3281 19.2031V22.2656H27.6406C28.0984 22.2656 28.4688 22.6081 28.4688 23.0312C28.4688 23.4544 28.0984 23.7969 27.6406 23.7969H24.3281V26.8594C24.3281 27.2826 23.9577 27.625 23.5 27.625C23.0423 27.625 22.6719 27.2826 22.6719 26.8594V23.7969H19.3594C18.9016 23.7969 18.5312 23.4544 18.5312 23.0312C18.5312 22.6081 18.9016 22.2656 19.3594 22.2656Z" fill="white"/>
</svg>
